BioRhyme-Bold.ufo
<glyph name="dollar" format="1">
  <advance width="574"/>
  <unicode hex="0024"/>
  <outline>
    <contour>
      <point x="457" y="-11"/>
      <point x="535" y="47"/>
      <point x="535" y="129" type="curve" smooth="yes"/>
      <point x="535" y="218"/>
      <point x="445" y="270"/>
      <point x="334" y="290" type="curve" smooth="yes"/>
      <point x="233" y="309"/>
      <point x="195" y="320"/>
      <point x="195" y="343" type="curve" smooth="yes"/>
      <point x="195" y="371"/>
      <point x="221" y="384"/>
      <point x="255" y="384" type="curve" smooth="yes"/>
      <point x="340" y="384"/>
      <point x="402" y="334"/>
      <point x="436" y="282" type="curve"/>
      <point x="508" y="286" type="line"/>
      <point x="508" y="470" type="line"/>
      <point x="399" y="470" type="line"/>
      <point x="399" y="355" type="line"/>
      <point x="458" y="350" type="line"/>
      <point x="403" y="423"/>
      <point x="342" y="480"/>
      <point x="237" y="480" type="curve" smooth="yes"/>
      <point x="139" y="480"/>
      <point x="67" y="419"/>
      <point x="67" y="336" type="curve" smooth="yes"/>
      <point x="67" y="267"/>
      <point x="116" y="202"/>
      <point x="233" y="181" type="curve" smooth="yes"/>
      <point x="360" y="157"/>
      <point x="407" y="143"/>
      <point x="407" y="117" type="curve" smooth="yes"/>
      <point x="407" y="87"/>
      <point x="368" y="84"/>
      <point x="359" y="84" type="curve" smooth="yes"/>
      <point x="285" y="84"/>
      <point x="197" y="128"/>
      <point x="142" y="194" type="curve"/>
      <point x="66" y="190" type="line"/>
      <point x="66" y="0" type="line"/>
      <point x="176" y="0" type="line"/>
      <point x="176" y="114" type="line"/>
      <point x="109" y="121" type="line"/>
      <point x="180" y="50"/>
      <point x="249" y="-11"/>
      <point x="359" y="-11" type="curve" smooth="yes"/>
    </contour>
    <contour>
      <point x="349" y="-111" type="line"/>
      <point x="349" y="54" type="line"/>
      <point x="343" y="67" type="line"/>
      <point x="343" y="417" type="line"/>
      <point x="349" y="431" type="line"/>
      <point x="349" y="575" type="line"/>
      <point x="253" y="575" type="line"/>
      <point x="253" y="430" type="line"/>
      <point x="259" y="416" type="line"/>
      <point x="259" y="67" type="line"/>
      <point x="253" y="52" type="line"/>
      <point x="253" y="-111" type="line"/>
    </contour>
  </outline>
</glyph>
<glyph name="parenright" format="1">
  <advance width="268"/>
  <unicode hex="0029"/>
  <outline>
    <contour>
      <point x="111" y="-33"/>
      <point x="240" y="72"/>
      <point x="240" y="265" type="curve" smooth="yes"/>
      <point x="240" y="458"/>
      <point x="99" y="575"/>
      <point x="1" y="620" type="curve"/>
      <point x="-25" y="582" type="line"/>
      <point x="18" y="544"/>
      <point x="129" y="437"/>
      <point x="129" y="265" type="curve" smooth="yes"/>
      <point x="129" y="93"/>
      <point x="31" y="-1"/>
      <point x="-25" y="-50" type="curve"/>
      <point x="1" y="-90" type="line"/>
    </contour>
  </outline>
</glyph>
<glyph name="six" format="1">
  <advance width="485"/>
  <unicode hex="0036"/>
  <outline>
    <contour>
      <point x="377" y="-22"/>
      <point x="464" y="51"/>
      <point x="464" y="144" type="curve" smooth="yes"/>
      <point x="464" y="251"/>
      <point x="373" y="304"/>
      <point x="276" y="304" type="curve" smooth="yes"/>
      <point x="202" y="304"/>
      <point x="155" y="284"/>
      <point x="93" y="246" type="curve"/>
      <point x="96" y="159" type="line"/>
      <point x="155" y="193"/>
      <point x="211" y="208"/>
      <point x="265" y="208" type="curve" smooth="yes"/>
      <point x="307" y="208"/>
      <point x="348" y="186"/>
      <point x="348" y="143" type="curve" smooth="yes"/>
      <point x="349" y="98"/>
      <point x="313" y="76"/>
      <point x="267" y="76" type="curve" smooth="yes"/>
      <point x="203" y="76"/>
      <point x="148" y="127"/>
      <point x="148" y="216" type="curve" smooth="yes"/>
      <point x="148" y="317"/>
      <point x="214" y="384"/>
      <point x="303" y="384" type="curve" smooth="yes"/>
      <point x="349" y="384"/>
      <point x="384" y="371"/>
      <point x="417" y="351" type="curve"/>
      <point x="453" y="440" type="line"/>
      <point x="419" y="461"/>
      <point x="369" y="480"/>
      <point x="297" y="480" type="curve" smooth="yes"/>
      <point x="130" y="480"/>
      <point x="32" y="362"/>
      <point x="32" y="216" type="curve" smooth="yes"/>
      <point x="32" y="67"/>
      <point x="124" y="-20"/>
      <point x="267" y="-21" type="curve" smooth="yes"/>
    </contour>
  </outline>
</glyph>
<glyph name="semicolon" format="1">
  <advance width="248"/>
  <unicode hex="003B"/>
  <outline>
    <contour>
      <point x="157" y="-97"/>
      <point x="204" y="-41"/>
      <point x="204" y="14" type="curve" smooth="yes"/>
      <point x="204" y="69"/>
      <point x="171" y="100"/>
      <point x="121" y="100" type="curve" smooth="yes"/>
      <point x="78" y="100"/>
      <point x="44" y="79"/>
      <point x="44" y="44" type="curve" smooth="yes"/>
      <point x="44" y="13"/>
      <point x="72" y="-10"/>
      <point x="109" y="-10" type="curve" smooth="yes"/>
      <point x="122" y="-10"/>
      <point x="135" y="-8"/>
      <point x="143" y="-5" type="curve"/>
      <point x="142" y="-43"/>
      <point x="108" y="-79"/>
      <point x="69" y="-120" type="curve"/>
      <point x="98" y="-149" type="line"/>
    </contour>
    <contour>
      <point x="171" y="234"/>
      <point x="204" y="261"/>
      <point x="204" y="298" type="curve"/>
      <point x="204" y="338"/>
      <point x="171" y="365"/>
      <point x="124" y="365" type="curve"/>
      <point x="80" y="365"/>
      <point x="44" y="338"/>
      <point x="44" y="298" type="curve"/>
      <point x="44" y="261"/>
      <point x="80" y="234"/>
      <point x="124" y="234" type="curve"/>
    </contour>
  </outline>
</glyph>
<glyph name="less" format="1">
  <advance width="403"/>
  <unicode hex="003C"/>
  <outline>
    <contour>
      <point x="366" y="349" type="line"/>
      <point x="366" y="460" type="line"/>
      <point x="13" y="248" type="line"/>
      <point x="13" y="221" type="line"/>
      <point x="91" y="192" type="line"/>
    </contour>
    <contour>
      <point x="366" y="121" type="line"/>
      <point x="91" y="277" type="line"/>
      <point x="13" y="248" type="line"/>
      <point x="13" y="221" type="line"/>
      <point x="366" y="10" type="line"/>
    </contour>
  </outline>
</glyph>
<glyph name="equal" format="1">
  <advance width="483"/>
  <unicode hex="003D"/>
  <outline>
    <contour>
      <point x="51" y="354" type="line"/>
      <point x="51" y="257" type="line"/>
      <point x="431" y="257" type="line"/>
      <point x="431" y="354" type="line"/>
    </contour>
    <contour>
      <point x="51" y="213" type="line"/>
      <point x="51" y="116" type="line"/>
      <point x="431" y="116" type="line"/>
      <point x="431" y="213" type="line"/>
    </contour>
  </outline>
</glyph>
<glyph name="G" format="1">
  <advance width="622"/>
  <unicode hex="0047"/>
  <outline>
    <contour>
      <point x="478" y="-11"/>
      <point x="587" y="94"/>
      <point x="587" y="252" type="curve" smooth="yes"/>
      <point x="587" y="282" type="line"/>
      <point x="247" y="282" type="line"/>
      <point x="247" y="186" type="line"/>
      <point x="461" y="186" type="line"/>
      <point x="453" y="135"/>
      <point x="401" y="85"/>
      <point x="315" y="85" type="curve" smooth="yes"/>
      <point x="224" y="85"/>
      <point x="153" y="143"/>
      <point x="153" y="260" type="curve" smooth="yes"/>
      <point x="153" y="372"/>
      <point x="230" y="435"/>
      <point x="321" y="435" type="curve" smooth="yes"/>
      <point x="405" y="435"/>
      <point x="461" y="386"/>
      <point x="488" y="342" type="curve"/>
      <point x="568" y="347" type="line"/>
      <point x="568" y="520" type="line"/>
      <point x="458" y="520" type="line"/>
      <point x="458" y="424" type="line"/>
      <point x="514" y="407" type="line"/>
      <point x="473" y="481"/>
      <point x="397" y="530"/>
      <point x="289" y="530" type="curve" smooth="yes"/>
      <point x="169" y="530"/>
      <point x="25" y="434"/>
      <point x="25" y="260" type="curve" smooth="yes"/>
      <point x="25" y="91"/>
      <point x="150" y="-11"/>
      <point x="310" y="-11" type="curve" smooth="yes"/>
    </contour>
    <contour>
      <point x="316" y="530" type="move" name="top"/>
    </contour>
    <contour>
      <point x="316" y="-10" type="move" name="bottom"/>
    </contour>
  </outline>
</glyph>
<glyph name="R" format="1">
  <advance width="647"/>
  <unicode hex="0052"/>
  <outline>
    <contour>
      <point x="367" y="217" type="line" smooth="yes"/>
      <point x="499" y="217"/>
      <point x="564" y="297"/>
      <point x="564" y="369" type="curve" smooth="yes"/>
      <point x="564" y="457"/>
      <point x="498" y="520"/>
      <point x="367" y="520" type="curve" smooth="yes"/>
      <point x="25" y="520" type="line"/>
      <point x="25" y="424" type="line"/>
      <point x="360" y="424" type="line" smooth="yes"/>
      <point x="397" y="424"/>
      <point x="442" y="415"/>
      <point x="442" y="369" type="curve" smooth="yes"/>
      <point x="442" y="319"/>
      <point x="394" y="307"/>
      <point x="360" y="307" type="curve" smooth="yes"/>
      <point x="190" y="307" type="line"/>
      <point x="190" y="217" type="line"/>
    </contour>
    <contour>
      <point x="318" y="0" type="line"/>
      <point x="318" y="96" type="line"/>
      <point x="25" y="97" type="line"/>
      <point x="25" y="0" type="line"/>
    </contour>
    <contour>
      <point x="233" y="53" type="line"/>
      <point x="233" y="464" type="line"/>
      <point x="110" y="464" type="line"/>
      <point x="110" y="53" type="line"/>
    </contour>
    <contour>
      <point x="597" y="-11"/>
      <point x="649" y="57"/>
      <point x="649" y="138" type="curve" smooth="yes"/>
      <point x="649" y="161" type="line"/>
      <point x="544" y="161" type="line"/>
      <point x="544" y="136" type="line" smooth="yes"/>
      <point x="544" y="111"/>
      <point x="532" y="91"/>
      <point x="507" y="91" type="curve" smooth="yes"/>
      <point x="485" y="91"/>
      <point x="473" y="105"/>
      <point x="460" y="133" type="curve" smooth="yes"/>
      <point x="441" y="172"/>
      <point x="419" y="235"/>
      <point x="350" y="235" type="curve" smooth="yes"/>
      <point x="247" y="235" type="line"/>
      <point x="247" y="217" type="line"/>
      <point x="276" y="217" type="line" smooth="yes"/>
      <point x="307" y="217"/>
      <point x="323" y="173"/>
      <point x="347" y="119" type="curve" smooth="yes"/>
      <point x="369" y="68"/>
      <point x="411" y="-11"/>
      <point x="507" y="-11" type="curve" smooth="yes"/>
    </contour>
    <contour>
      <point x="320" y="520" type="move" name="top"/>
    </contour>
    <contour>
      <point x="360" y="0" type="move" name="bottom"/>
    </contour>
  </outline>
</glyph>
<glyph name="bracketleft" format="1">
  <advance width="276"/>
  <unicode hex="005B"/>
  <outline>
    <contour>
      <point x="81" y="-76" type="line"/>
      <point x="185" y="-76" type="line"/>
      <point x="185" y="604" type="line"/>
      <point x="81" y="604" type="line"/>
    </contour>
    <contour>
      <point x="83" y="508" type="line"/>
      <point x="267" y="508" type="line"/>
      <point x="267" y="604" type="line"/>
      <point x="83" y="604" type="line"/>
    </contour>
    <contour>
      <point x="83" y="-76" type="line"/>
      <point x="267" y="-76" type="line"/>
      <point x="267" y="20" type="line"/>
      <point x="83" y="20" type="line"/>
    </contour>
  </outline>
</glyph>
<glyph name="l" format="1">
  <advance width="268"/>
  <unicode hex="006C"/>
  <outline>
    <contour>
      <point x="194" y="0" type="line"/>
      <point x="194" y="520" type="line"/>
      <point x="79" y="520" type="line"/>
      <point x="79" y="0" type="line"/>
    </contour>
    <contour>
      <point x="266" y="0" type="line"/>
      <point x="266" y="90" type="line"/>
      <point x="8" y="90" type="line"/>
      <point x="8" y="0" type="line"/>
    </contour>
    <contour>
      <point x="186" y="430" type="line"/>
      <point x="186" y="520" type="line"/>
      <point x="8" y="520" type="line"/>
      <point x="8" y="430" type="line"/>
    </contour>
    <contour>
      <point x="137" y="0" type="move" name="bottom"/>
    </contour>
    <contour>
      <point x="137" y="511" type="move" name="top"/>
    </contour>
    <contour>
      <point x="306" y="357" type="move" name="topright"/>
    </contour>
    <contour>
      <point x="137" y="283" type="move" name="center"/>
    </contour>
  </outline>
</glyph>
<glyph name="p" format="1">
  <advance width="524"/>
  <unicode hex="0070"/>
  <outline>
    <contour>
      <point x="424" y="-11"/>
      <point x="504" y="71"/>
      <point x="504" y="178" type="curve" smooth="yes"/>
      <point x="504" y="287"/>
      <point x="427" y="367"/>
      <point x="331" y="367" type="curve" smooth="yes"/>
      <point x="253" y="367"/>
      <point x="168" y="292"/>
      <point x="133" y="173" type="curve"/>
      <point x="133" y="89" type="line"/>
      <point x="166" y="197"/>
      <point x="237" y="268"/>
      <point x="290" y="269" type="curve" smooth="yes"/>
      <point x="343" y="270"/>
      <point x="376" y="231"/>
      <point x="376" y="179" type="curve" smooth="yes"/>
      <point x="376" y="124"/>
      <point x="338" y="84"/>
      <point x="275" y="84" type="curve" smooth="yes"/>
      <point x="222" y="84"/>
      <point x="167" y="130"/>
      <point x="135" y="173" type="curve"/>
      <point x="135" y="97" type="line"/>
      <point x="166" y="55"/>
      <point x="214" y="-11"/>
      <point x="305" y="-11" type="curve" smooth="yes"/>
    </contour>
    <contour>
      <point x="265" y="-165" type="line"/>
      <point x="265" y="-75" type="line"/>
      <point x="8" y="-75" type="line"/>
      <point x="8" y="-165" type="line"/>
    </contour>
    <contour>
      <point x="195" y="-157" type="line"/>
      <point x="195" y="357" type="line"/>
      <point x="79" y="357" type="line"/>
      <point x="79" y="-157" type="line"/>
    </contour>
    <contour>
      <point x="186" y="267" type="line"/>
      <point x="192" y="357" type="line"/>
      <point x="8" y="357" type="line"/>
      <point x="8" y="267" type="line"/>
    </contour>
    <contour>
      <point x="314" y="363" type="move" name="top"/>
    </contour>
    <contour>
      <point x="314" y="-8" type="move" name="bottom"/>
    </contour>
  </outline>
</glyph>
<glyph name="s" format="1">
  <advance width="383"/>
  <unicode hex="0073"/>
  <outline>
    <contour>
      <point x="314" y="-11"/>
      <point x="366" y="35"/>
      <point x="366" y="101" type="curve" smooth="yes"/>
      <point x="366" y="162"/>
      <point x="322" y="203"/>
      <point x="227" y="230" type="curve" smooth="yes"/>
      <point x="154" y="250"/>
      <point x="142" y="256"/>
      <point x="142" y="269" type="curve" smooth="yes"/>
      <point x="142" y="282"/>
      <point x="150" y="294"/>
      <point x="186" y="294" type="curve" smooth="yes"/>
      <point x="229" y="294"/>
      <point x="266" y="275"/>
      <point x="293" y="234" type="curve"/>
      <point x="343" y="238" type="line"/>
      <point x="343" y="357" type="line"/>
      <point x="258" y="357" type="line"/>
      <point x="258" y="273" type="line"/>
      <point x="298" y="277" type="line"/>
      <point x="262" y="341"/>
      <point x="228" y="367"/>
      <point x="156" y="367" type="curve" smooth="yes"/>
      <point x="77" y="367"/>
      <point x="22" y="317"/>
      <point x="22" y="250" type="curve" smooth="yes"/>
      <point x="22" y="195"/>
      <point x="57" y="151"/>
      <point x="156" y="128" type="curve" smooth="yes"/>
      <point x="234" y="109"/>
      <point x="246" y="97"/>
      <point x="246" y="85" type="curve" smooth="yes"/>
      <point x="246" y="71"/>
      <point x="236" y="62"/>
      <point x="202" y="62" type="curve" smooth="yes"/>
      <point x="163" y="62"/>
      <point x="101" y="85"/>
      <point x="74" y="121" type="curve"/>
      <point x="24" y="118" type="line"/>
      <point x="24" y="-1" type="line"/>
      <point x="110" y="-1" type="line"/>
      <point x="110" y="82" type="line"/>
      <point x="69" y="79" type="line"/>
      <point x="106" y="14"/>
      <point x="154" y="-11"/>
      <point x="219" y="-11" type="curve" smooth="yes"/>
    </contour>
    <contour>
      <point x="186" y="363" type="move" name="top"/>
    </contour>
    <contour>
      <point x="250" y="-11" type="move" name="bottom"/>
    </contour>
  </outline>
</glyph>
<glyph name="copyright" format="1">
  <advance width="774"/>
  <unicode hex="00A9"/>
  <outline>
    <contour>
      <point x="596" y="-165"/>
      <point x="746" y="-19"/>
      <point x="746" y="177" type="curve"/>
      <point x="746" y="373"/>
      <point x="596" y="519"/>
      <point x="387" y="519" type="curve"/>
      <point x="179" y="519"/>
      <point x="28" y="373"/>
      <point x="28" y="177" type="curve"/>
      <point x="28" y="-19"/>
      <point x="179" y="-165"/>
      <point x="387" y="-165" type="curve"/>
    </contour>
    <contour>
      <point x="463" y="3"/>
      <point x="513" y="40"/>
      <point x="547" y="84" type="curve"/>
      <point x="495" y="144" type="line"/>
      <point x="466" y="111"/>
      <point x="436" y="87"/>
      <point x="392" y="87" type="curve" smooth="yes"/>
      <point x="344" y="87"/>
      <point x="300" y="119"/>
      <point x="300" y="169" type="curve" smooth="yes"/>
      <point x="300" y="226"/>
      <point x="344" y="263"/>
      <point x="391" y="263" type="curve" smooth="yes"/>
      <point x="440" y="263"/>
      <point x="465" y="234"/>
      <point x="481" y="206" type="curve"/>
      <point x="543" y="210" type="line"/>
      <point x="543" y="333" type="line"/>
      <point x="471" y="333" type="line"/>
      <point x="471" y="268" type="line"/>
      <point x="503" y="257" type="line"/>
      <point x="479" y="307"/>
      <point x="435" y="337"/>
      <point x="370" y="337" type="curve" smooth="yes"/>
      <point x="282" y="337"/>
      <point x="204" y="273"/>
      <point x="204" y="169" type="curve" smooth="yes"/>
      <point x="204" y="70"/>
      <point x="285" y="3"/>
      <point x="389" y="3" type="curve" smooth="yes"/>
    </contour>
    <contour>
      <point x="214" y="-108"/>
      <point x="94" y="15"/>
      <point x="95" y="177" type="curve"/>
      <point x="94" y="339"/>
      <point x="214" y="462"/>
      <point x="387" y="462" type="curve"/>
      <point x="560" y="462"/>
      <point x="679" y="339"/>
      <point x="678" y="177" type="curve"/>
      <point x="679" y="15"/>
      <point x="560" y="-108"/>
      <point x="387" y="-108" type="curve"/>
    </contour>
  </outline>
</glyph>
<glyph name="guillemotleft" format="1">
  <advance width="665"/>
  <unicode hex="00AB"/>
  <outline>
    <contour>
      <point x="645" y="64" type="line"/>
      <point x="611" y="184"/>
      <point x="525" y="268"/>
      <point x="339" y="268" type="curve"/>
      <point x="339" y="262" type="line"/>
      <point x="524" y="262"/>
      <point x="610" y="346"/>
      <point x="644" y="467" type="curve"/>
      <point x="555" y="500" type="line"/>
      <point x="524" y="385"/>
      <point x="446" y="314"/>
      <point x="314" y="314" type="curve" smooth="yes"/>
      <point x="315" y="314" type="line"/>
      <point x="315" y="216" type="line"/>
      <point x="315" y="216" type="line" smooth="yes"/>
      <point x="448" y="216"/>
      <point x="525" y="145"/>
      <point x="557" y="30" type="curve"/>
    </contour>
    <contour>
      <point x="371" y="64" type="line"/>
      <point x="337" y="184"/>
      <point x="251" y="268"/>
      <point x="65" y="268" type="curve"/>
      <point x="65" y="262" type="line"/>
      <point x="250" y="262"/>
      <point x="336" y="346"/>
      <point x="370" y="467" type="curve"/>
      <point x="281" y="500" type="line"/>
      <point x="250" y="385"/>
      <point x="172" y="314"/>
      <point x="40" y="314" type="curve" smooth="yes"/>
      <point x="41" y="314" type="line"/>
      <point x="41" y="216" type="line"/>
      <point x="41" y="216" type="line" smooth="yes"/>
      <point x="174" y="216"/>
      <point x="251" y="145"/>
      <point x="283" y="30" type="curve"/>
    </contour>
  </outline>
</glyph>
<glyph name="guillemotright" format="1">
  <advance width="665"/>
  <unicode hex="00BB"/>
  <outline>
    <contour>
      <point x="415" y="144"/>
      <point x="493" y="215"/>
      <point x="625" y="215" type="curve" smooth="yes"/>
      <point x="624" y="215" type="line"/>
      <point x="624" y="312" type="line"/>
      <point x="624" y="312" type="line" smooth="yes"/>
      <point x="491" y="312"/>
      <point x="414" y="383"/>
      <point x="382" y="498" type="curve"/>
      <point x="294" y="465" type="line"/>
      <point x="328" y="345"/>
      <point x="414" y="261"/>
      <point x="600" y="261" type="curve"/>
      <point x="600" y="267" type="line"/>
      <point x="415" y="267"/>
      <point x="330" y="182"/>
      <point x="295" y="62" type="curve"/>
      <point x="384" y="29" type="line"/>
    </contour>
    <contour>
      <point x="141" y="144"/>
      <point x="219" y="215"/>
      <point x="351" y="215" type="curve" smooth="yes"/>
      <point x="350" y="215" type="line"/>
      <point x="350" y="312" type="line"/>
      <point x="350" y="312" type="line" smooth="yes"/>
      <point x="217" y="312"/>
      <point x="140" y="383"/>
      <point x="108" y="498" type="curve"/>
      <point x="20" y="465" type="line"/>
      <point x="54" y="345"/>
      <point x="140" y="261"/>
      <point x="326" y="261" type="curve"/>
      <point x="326" y="267" type="line"/>
      <point x="141" y="267"/>
      <point x="56" y="182"/>
      <point x="21" y="62" type="curve"/>
      <point x="110" y="29" type="line"/>
    </contour>
  </outline>
</glyph>
<glyph name="eth" format="1">
  <advance width="468"/>
  <unicode hex="00F0"/>
  <outline>
    <contour>
      <point x="359" y="604" type="line"/>
      <point x="287" y="659" type="line"/>
      <point x="81" y="363" type="line"/>
      <point x="154" y="309" type="line"/>
    </contour>
    <contour>
      <point x="338" y="-18"/>
      <point x="446" y="60"/>
      <point x="446" y="204" type="curve" smooth="yes"/>
      <point x="446" y="373"/>
      <point x="318" y="516"/>
      <point x="121" y="595" type="curve"/>
      <point x="80" y="498" type="line"/>
      <point x="241" y="430"/>
      <point x="324" y="332"/>
      <point x="324" y="198" type="curve" smooth="yes"/>
      <point x="324" y="102"/>
      <point x="269" y="70"/>
      <point x="219" y="70" type="curve" smooth="yes"/>
      <point x="179" y="70"/>
      <point x="147" y="100"/>
      <point x="147" y="145" type="curve" smooth="yes"/>
      <point x="147" y="188"/>
      <point x="187" y="221"/>
      <point x="236" y="221" type="curve" smooth="yes"/>
      <point x="278" y="221"/>
      <point x="340" y="199"/>
      <point x="372" y="159" type="curve"/>
      <point x="376" y="239" type="line"/>
      <point x="327" y="290"/>
      <point x="273" y="310"/>
      <point x="206" y="310" type="curve" smooth="yes"/>
      <point x="100" y="310"/>
      <point x="19" y="236"/>
      <point x="19" y="145" type="curve" smooth="yes"/>
      <point x="19" y="49"/>
      <point x="101" y="-20"/>
      <point x="217" y="-19" type="curve" smooth="yes"/>
    </contour>
  </outline>
</glyph>
<glyph name="thorn" format="1">
  <advance width="493"/>
  <unicode hex="00FE"/>
  <outline>
    <contour>
      <point x="222" y="367"/>
      <point x="137" y="292"/>
      <point x="102" y="173" type="curve"/>
      <point x="102" y="89" type="line"/>
      <point x="135" y="197"/>
      <point x="206" y="268"/>
      <point x="259" y="269" type="curve" smooth="yes"/>
      <point x="312" y="270"/>
      <point x="345" y="231"/>
      <point x="345" y="179" type="curve" smooth="yes"/>
      <point x="345" y="124"/>
      <point x="307" y="84"/>
      <point x="244" y="84" type="curve" smooth="yes"/>
      <point x="191" y="84"/>
      <point x="136" y="130"/>
      <point x="104" y="173" type="curve"/>
      <point x="104" y="97" type="line"/>
      <point x="135" y="55"/>
      <point x="183" y="-11"/>
      <point x="274" y="-11" type="curve" smooth="yes"/>
      <point x="393" y="-11"/>
      <point x="473" y="71"/>
      <point x="473" y="178" type="curve" smooth="yes"/>
      <point x="473" y="287"/>
      <point x="396" y="367"/>
      <point x="300" y="367" type="curve" smooth="yes"/>
    </contour>
    <contour>
      <point x="246" y="-165" type="line"/>
      <point x="246" y="-75" type="line"/>
      <point x="-20" y="-75" type="line"/>
      <point x="-20" y="-165" type="line"/>
    </contour>
    <contour>
      <point x="-20" y="520" type="line"/>
      <point x="-20" y="430" type="line"/>
      <point x="51" y="430" type="line"/>
      <point x="51" y="-165" type="line"/>
      <point x="163" y="-165" type="line"/>
      <point x="163" y="520" type="line"/>
    </contour>
  </outline>
</glyph>
<glyph name="Hbar" format="1">
  <advance width="729"/>
  <unicode hex="0126"/>
  <outline>
    <contour>
      <point x="679" y="308" type="line"/>
      <point x="679" y="392" type="line"/>
      <point x="49" y="392" type="line"/>
      <point x="49" y="308" type="line"/>
    </contour>
    <contour>
      <point x="317" y="0" type="line"/>
      <point x="317" y="96" type="line"/>
      <point x="25" y="96" type="line"/>
      <point x="25" y="0" type="line"/>
    </contour>
    <contour>
      <point x="232" y="53" type="line"/>
      <point x="232" y="464" type="line"/>
      <point x="110" y="464" type="line"/>
      <point x="110" y="53" type="line"/>
    </contour>
    <contour>
      <point x="704" y="0" type="line"/>
      <point x="704" y="96" type="line"/>
      <point x="411" y="96" type="line"/>
      <point x="411" y="0" type="line"/>
    </contour>
    <contour>
      <point x="581" y="189" type="line"/>
      <point x="581" y="276" type="line"/>
      <point x="148" y="276" type="line"/>
      <point x="148" y="189" type="line"/>
    </contour>
    <contour>
      <point x="317" y="424" type="line"/>
      <point x="317" y="520" type="line"/>
      <point x="25" y="520" type="line"/>
      <point x="25" y="424" type="line"/>
    </contour>
    <contour>
      <point x="619" y="56" type="line"/>
      <point x="619" y="467" type="line"/>
      <point x="496" y="467" type="line"/>
      <point x="496" y="56" type="line"/>
    </contour>
    <contour>
      <point x="704" y="424" type="line"/>
      <point x="704" y="520" type="line"/>
      <point x="411" y="520" type="line"/>
      <point x="411" y="424" type="line"/>
    </contour>
    <contour>
      <point x="361" y="255" type="move" name="center"/>
    </contour>
    <contour>
      <point x="361" y="0" type="move" name="bottom"/>
    </contour>
    <contour>
      <point x="361" y="520" type="move" name="top"/>
    </contour>
  </outline>
</glyph>
<glyph name="OE" format="1">
  <advance width="888"/>
  <unicode hex="0152"/>
  <outline>
    <contour>
      <point x="834" y="0" type="line"/>
      <point x="834" y="190" type="line"/>
      <point x="726" y="190" type="line"/>
      <point x="726" y="96" type="line"/>
      <point x="347" y="96" type="line" smooth="yes"/>
      <point x="269" y="96"/>
      <point x="153" y="117"/>
      <point x="153" y="261" type="curve" smooth="yes"/>
      <point x="153" y="406"/>
      <point x="269" y="424"/>
      <point x="347" y="424" type="curve" smooth="yes"/>
      <point x="726" y="424" type="line"/>
      <point x="726" y="329" type="line"/>
      <point x="834" y="329" type="line"/>
      <point x="834" y="520" type="line"/>
      <point x="317" y="520" type="line" smooth="yes"/>
      <point x="174" y="520"/>
      <point x="25" y="448"/>
      <point x="25" y="261" type="curve" smooth="yes"/>
      <point x="25" y="74"/>
      <point x="174" y="0"/>
      <point x="317" y="0" type="curve" smooth="yes"/>
    </contour>
    <contour>
      <point x="509" y="53" type="line"/>
      <point x="509" y="458" type="line"/>
      <point x="387" y="458" type="line"/>
      <point x="387" y="53" type="line"/>
    </contour>
    <contour>
      <point x="634" y="206" type="line"/>
      <point x="634" y="302" type="line"/>
      <point x="431" y="302" type="line"/>
      <point x="431" y="206" type="line"/>
    </contour>
    <contour>
      <point x="675" y="151" type="line"/>
      <point x="675" y="357" type="line"/>
      <point x="579" y="357" type="line"/>
      <point x="579" y="151" type="line"/>
    </contour>
    <contour>
      <point x="492" y="0" type="move" name="bottom"/>
    </contour>
    <contour>
      <point x="834" y="0" type="move" name="ogonek"/>
    </contour>
    <contour>
      <point x="492" y="520" type="move" name="top"/>
    </contour>
    <contour>
      <point x="492" y="263" type="move" name="center"/>
    </contour>
  </outline>
</glyph>
<glyph name="oe" format="1">
  <advance width="736"/>
  <unicode hex="0153"/>
  <outline>
    <contour>
      <point x="349" y="-11"/>
      <point x="426" y="63"/>
      <point x="426" y="178" type="curve"/>
      <point x="426" y="293"/>
      <point x="341" y="367"/>
      <point x="227" y="367" type="curve"/>
      <point x="116" y="367"/>
      <point x="21" y="293"/>
      <point x="21" y="178" type="curve"/>
      <point x="21" y="63"/>
      <point x="117" y="-11"/>
      <point x="227" y="-11" type="curve"/>
    </contour>
    <contour>
      <point x="186" y="85"/>
      <point x="148" y="122"/>
      <point x="148" y="178" type="curve"/>
      <point x="148" y="234"/>
      <point x="186" y="271"/>
      <point x="232" y="271" type="curve"/>
      <point x="279" y="271"/>
      <point x="317" y="234"/>
      <point x="317" y="178" type="curve"/>
      <point x="317" y="122"/>
      <point x="279" y="85"/>
      <point x="232" y="85" type="curve"/>
    </contour>
    <contour>
      <point x="687" y="139" type="line"/>
      <point x="649" y="107"/>
      <point x="603" y="85"/>
      <point x="554" y="85" type="curve" smooth="yes"/>
      <point x="504" y="85"/>
      <point x="444" y="117"/>
      <point x="444" y="187" type="curve" smooth="yes"/>
      <point x="444" y="247"/>
      <point x="495" y="281"/>
      <point x="536" y="281" type="curve" smooth="yes"/>
      <point x="568" y="281"/>
      <point x="590" y="261"/>
      <point x="590" y="245" type="curve" smooth="yes"/>
      <point x="590" y="227"/>
      <point x="572" y="203"/>
      <point x="523" y="203" type="curve" smooth="yes"/>
      <point x="478" y="203"/>
      <point x="407" y="212"/>
      <point x="360" y="256" type="curve"/>
      <point x="358" y="196" type="line"/>
      <point x="403" y="157"/>
      <point x="478" y="125"/>
      <point x="555" y="125" type="curve" smooth="yes"/>
      <point x="616" y="125"/>
      <point x="714" y="157"/>
      <point x="714" y="241" type="curve" smooth="yes"/>
      <point x="714" y="313"/>
      <point x="640" y="367"/>
      <point x="536" y="367" type="curve" smooth="yes"/>
      <point x="430" y="367"/>
      <point x="353" y="304"/>
      <point x="345" y="191" type="curve"/>
      <point x="346" y="177" type="line"/>
      <point x="346" y="60"/>
      <point x="425" y="-11"/>
      <point x="544" y="-11" type="curve" smooth="yes"/>
      <point x="621" y="-11"/>
      <point x="685" y="20"/>
      <point x="729" y="56" type="curve"/>
    </contour>
    <contour>
      <point x="387" y="-10" type="move" name="bottom"/>
    </contour>
    <contour>
      <point x="729" y="56" type="move" name="ogonek"/>
    </contour>
    <contour>
      <point x="378" y="367" type="move" name="top"/>
    </contour>
    <contour>
      <point x="376" y="179" type="move" name="center"/>
    </contour>
  </outline>
</glyph>
<glyph name="gravecomb" format="1">
  <advance width="355"/>
  <unicode hex="0300"/>
  <outline>
    <contour>
      <point x="268" y="481" type="line"/>
      <point x="58" y="583" type="line"/>
      <point x="116" y="666" type="line"/>
      <point x="298" y="524" type="line"/>
    </contour>
    <contour>
      <point x="152" y="421" type="move" name="_top"/>
    </contour>
  </outline>
</glyph>
<glyph name="hookabovecomb" format="1">
  <advance width="600"/>
  <unicode hex="0309"/>
  <outline>
    <contour>
      <point x="171" y="470" type="line"/>
      <point x="196" y="496"/>
      <point x="217" y="523"/>
      <point x="217" y="561" type="curve" smooth="yes"/>
      <point x="217" y="603"/>
      <point x="176" y="630"/>
      <point x="131" y="630" type="curve" smooth="yes"/>
      <point x="95" y="630"/>
      <point x="69" y="622"/>
      <point x="45" y="609" type="curve"/>
      <point x="65" y="548" type="line"/>
      <point x="82" y="558"/>
      <point x="100" y="564"/>
      <point x="117" y="564" type="curve" smooth="yes"/>
      <point x="138" y="564"/>
      <point x="149" y="552"/>
      <point x="149" y="535" type="curve" smooth="yes"/>
      <point x="149" y="517"/>
      <point x="140" y="502"/>
      <point x="129" y="484" type="curve"/>
    </contour>
    <contour>
      <point x="98" y="449" type="move" name="_hook"/>
    </contour>
  </outline>
</glyph>
<glyph name="uni030B" format="1">
  <advance width="468"/>
  <unicode hex="030B"/>
  <outline>
    <contour>
      <point x="425" y="635" type="line"/>
      <point x="348" y="701" type="line"/>
      <point x="239" y="539" type="line"/>
      <point x="294" y="491" type="line"/>
    </contour>
    <contour>
      <point x="229" y="635" type="line"/>
      <point x="152" y="701" type="line"/>
      <point x="43" y="539" type="line"/>
      <point x="98" y="491" type="line"/>
    </contour>
    <contour>
      <point x="213" y="428" type="move" name="_top"/>
    </contour>
  </outline>
</glyph>
<glyph name="uni030C" format="1">
  <advance width="322"/>
  <unicode hex="030C"/>
  <outline>
    <contour>
      <point x="162" y="570" type="line"/>
      <point x="58" y="644" type="line"/>
      <point x="23" y="612" type="line"/>
      <point x="133" y="481" type="line"/>
      <point x="189" y="481" type="line"/>
      <point x="299" y="612" type="line"/>
      <point x="264" y="644" type="line"/>
    </contour>
    <contour>
      <point x="161" y="415" type="move" name="_top"/>
    </contour>
  </outline>
</glyph>
<glyph name="quoteleft" format="1">
  <advance width="248"/>
  <unicode hex="2018"/>
  <outline>
    <contour>
      <point x="170" y="324"/>
      <point x="204" y="345"/>
      <point x="204" y="380" type="curve" smooth="yes"/>
      <point x="204" y="411"/>
      <point x="176" y="434"/>
      <point x="139" y="434" type="curve" smooth="yes"/>
      <point x="126" y="434"/>
      <point x="113" y="432"/>
      <point x="105" y="429" type="curve"/>
      <point x="106" y="467"/>
      <point x="140" y="503"/>
      <point x="178" y="544" type="curve"/>
      <point x="150" y="573" type="line"/>
      <point x="91" y="521"/>
      <point x="44" y="466"/>
      <point x="44" y="410" type="curve" smooth="yes"/>
      <point x="44" y="355"/>
      <point x="76" y="324"/>
      <point x="127" y="324" type="curve" smooth="yes"/>
    </contour>
  </outline>
</glyph>
<glyph name="quotedblleft" format="1">
  <advance width="459"/>
  <unicode hex="201C"/>
  <outline>
    <contour>
      <point x="381" y="322"/>
      <point x="415" y="343"/>
      <point x="415" y="378" type="curve" smooth="yes"/>
      <point x="415" y="409"/>
      <point x="387" y="432"/>
      <point x="350" y="432" type="curve" smooth="yes"/>
      <point x="337" y="432"/>
      <point x="324" y="430"/>
      <point x="316" y="427" type="curve"/>
      <point x="317" y="465"/>
      <point x="351" y="501"/>
      <point x="389" y="542" type="curve"/>
      <point x="361" y="571" type="line"/>
      <point x="302" y="519"/>
      <point x="255" y="463"/>
      <point x="255" y="408" type="curve" smooth="yes"/>
      <point x="255" y="353"/>
      <point x="287" y="322"/>
      <point x="338" y="322" type="curve" smooth="yes"/>
    </contour>
    <contour>
      <point x="170" y="324"/>
      <point x="204" y="345"/>
      <point x="204" y="380" type="curve" smooth="yes"/>
      <point x="204" y="411"/>
      <point x="176" y="434"/>
      <point x="139" y="434" type="curve" smooth="yes"/>
      <point x="126" y="434"/>
      <point x="113" y="432"/>
      <point x="105" y="429" type="curve"/>
      <point x="106" y="467"/>
      <point x="140" y="503"/>
      <point x="178" y="544" type="curve"/>
      <point x="150" y="573" type="line"/>
      <point x="91" y="521"/>
      <point x="44" y="466"/>
      <point x="44" y="410" type="curve" smooth="yes"/>
      <point x="44" y="355"/>
      <point x="76" y="324"/>
      <point x="127" y="324" type="curve" smooth="yes"/>
    </contour>
  </outline>
</glyph>
<glyph name="quotedblright" format="1">
  <advance width="459"/>
  <unicode hex="201D"/>
  <outline>
    <contour>
      <point x="368" y="374"/>
      <point x="415" y="429"/>
      <point x="415" y="484" type="curve" smooth="yes"/>
      <point x="415" y="540"/>
      <point x="382" y="571"/>
      <point x="332" y="571" type="curve" smooth="yes"/>
      <point x="289" y="571"/>
      <point x="255" y="549"/>
      <point x="255" y="515" type="curve" smooth="yes"/>
      <point x="255" y="483"/>
      <point x="283" y="460"/>
      <point x="320" y="460" type="curve" smooth="yes"/>
      <point x="333" y="460"/>
      <point x="346" y="462"/>
      <point x="354" y="465" type="curve"/>
      <point x="353" y="427"/>
      <point x="319" y="391"/>
      <point x="280" y="351" type="curve"/>
      <point x="309" y="322" type="line"/>
    </contour>
    <contour>
      <point x="157" y="376"/>
      <point x="204" y="432"/>
      <point x="204" y="487" type="curve" smooth="yes"/>
      <point x="204" y="542"/>
      <point x="171" y="573"/>
      <point x="121" y="573" type="curve" smooth="yes"/>
      <point x="78" y="573"/>
      <point x="44" y="552"/>
      <point x="44" y="517" type="curve" smooth="yes"/>
      <point x="44" y="486"/>
      <point x="72" y="463"/>
      <point x="109" y="463" type="curve" smooth="yes"/>
      <point x="122" y="463"/>
      <point x="135" y="465"/>
      <point x="143" y="468" type="curve"/>
      <point x="142" y="430"/>
      <point x="108" y="394"/>
      <point x="69" y="353" type="curve"/>
      <point x="98" y="324" type="line"/>
    </contour>
  </outline>
</glyph>
<glyph name="bullet" format="1">
  <advance width="375"/>
  <unicode hex="2022"/>
  <outline>
    <contour>
      <point x="268" y="138"/>
      <point x="324" y="184"/>
      <point x="324" y="246" type="curve"/>
      <point x="324" y="314"/>
      <point x="268" y="361"/>
      <point x="188" y="361" type="curve"/>
      <point x="114" y="361"/>
      <point x="52" y="314"/>
      <point x="52" y="246" type="curve"/>
      <point x="52" y="184"/>
      <point x="114" y="138"/>
      <point x="188" y="138" type="curve"/>
    </contour>
  </outline>
</glyph>
<glyph name="u.alt" format="1">
  <advance width="519"/>
  <outline>
    <contour>
      <point x="258" y="-10"/>
      <point x="309" y="35"/>
      <point x="381" y="129" type="curve"/>
      <point x="381" y="219" type="line"/>
      <point x="326" y="139"/>
      <point x="278" y="97"/>
      <point x="235" y="97" type="curve" smooth="yes"/>
      <point x="185" y="97"/>
      <point x="172" y="128"/>
      <point x="172" y="168" type="curve" smooth="yes"/>
      <point x="172" y="356" type="line"/>
      <point x="57" y="356" type="line"/>
      <point x="57" y="168" type="line" smooth="yes"/>
      <point x="57" y="50"/>
      <point x="106" y="-10"/>
      <point x="192" y="-10" type="curve" smooth="yes"/>
    </contour>
    <contour>
      <point x="174" y="267" type="line"/>
      <point x="174" y="357" type="line"/>
      <point x="-5" y="357" type="line"/>
      <point x="-5" y="267" type="line"/>
    </contour>
    <contour>
      <point x="484" y="-11"/>
      <point x="527" y="22"/>
      <point x="527" y="85" type="curve" smooth="yes"/>
      <point x="527" y="138" type="line"/>
      <point x="470" y="138" type="line"/>
      <point x="470" y="84" type="line" smooth="yes"/>
      <point x="470" y="73"/>
      <point x="467" y="63"/>
      <point x="456" y="63" type="curve" smooth="yes"/>
      <point x="444" y="63"/>
      <point x="441" y="74"/>
      <point x="441" y="83" type="curve" smooth="yes"/>
      <point x="441" y="357" type="line"/>
      <point x="327" y="357" type="line"/>
      <point x="327" y="85" type="line" smooth="yes"/>
      <point x="327" y="27"/>
      <point x="364" y="-11"/>
      <point x="431" y="-11" type="curve" smooth="yes"/>
    </contour>
    <contour>
      <point x="428" y="267" type="line"/>
      <point x="428" y="357" type="line"/>
      <point x="271" y="357" type="line"/>
      <point x="271" y="267" type="line"/>
    </contour>
    <contour>
      <point x="466" y="-4" type="move" name="ogonek"/>
    </contour>
    <contour>
      <point x="242" y="357" type="move" name="top"/>
    </contour>
    <contour>
      <point x="477" y="357" type="move" name="topright"/>
    </contour>
    <contour>
      <point x="242" y="-20" type="move" name="bottom"/>
    </contour>
  </outline>
</glyph>
